<?xml version="1.0" encoding="UTF-8"?><svg id="a" xmlns="http://www.w3.org/2000/svg" viewBox="0 0 482.25 265.54"><defs><style>.b,.c,.d{fill:none;stroke:#000;stroke-miterlimit:10;}.c{stroke-dasharray:0 0 0 0 21 5.25 5.25 5.25;}.d{stroke-dasharray:0 0 5.25 5.25;}.e{fill:#ccc;}</style></defs><g><path class="e" d="M1.5,264.04C1.77,171.39,27.01,80.87,74.56,2.03l96.72,55.84,122.54,70.76c-25.46,40.52-39.04,87.28-39.31,135.41H1.5Z"/><path d="M75.09,4.07l95.44,55.1,121.19,69.98c-24.82,40.03-38.17,86.02-38.71,133.39H3.01c.27-46.36,6.75-92.23,19.28-136.4C34.42,83.35,52.18,42.3,75.09,4.07m-1.05-4.07C27.05,77.4,0,168.28,0,265.54H256c0-50.6,14.64-97.74,39.92-137.43L172.03,56.57,74.04,0h0Z"/></g><g><path class="b" d="M159.22,89.65c-1.63,3.35-3.24,7.02-4.82,10.98"/><path class="d" d="M152.51,105.54c-.89,2.39-1.76,4.87-2.63,7.42"/><path class="c" d="M149.06,115.45c-9.72,29.7-17.51,69.16-20.24,105.48"/><path class="b" d="M128.63,223.56c-.28,4.04-.49,8.04-.63,11.98"/></g><line class="b" x1="482" y1="235.54" x2="354" y2="235.54"/><line class="b" x1="482" y1="235.54" x2="371.15" y2="171.54"/><path class="b" d="M402.01,189.36c-7.85,13.58-12.34,29.35-12.34,46.18"/><g><path d="M341.02,214.53c.9,.58,2.99,1.48,5.18,1.48,4.07,0,5.33-2.59,5.29-4.54-.04-3.28-2.99-4.68-6.05-4.68h-1.76v-2.38h1.76c2.3,0,5.22-1.19,5.22-3.96,0-1.87-1.19-3.53-4.1-3.53-1.87,0-3.67,.83-4.68,1.55l-.83-2.3c1.22-.9,3.6-1.8,6.12-1.8,4.61,0,6.7,2.74,6.7,5.58,0,2.41-1.44,4.46-4.32,5.51v.07c2.88,.58,5.22,2.74,5.22,6.01,0,3.74-2.92,7.02-8.53,7.02-2.63,0-4.93-.83-6.08-1.58l.86-2.45Z"/><path d="M374.29,206.22c0,7.96-2.95,12.35-8.13,12.35-4.57,0-7.67-4.28-7.74-12.02,0-7.85,3.38-12.17,8.13-12.17s7.74,4.39,7.74,11.84Zm-12.71,.36c0,6.08,1.87,9.54,4.75,9.54,3.24,0,4.79-3.78,4.79-9.75s-1.48-9.54-4.75-9.54c-2.77,0-4.79,3.38-4.79,9.75Z"/><path d="M386.17,198.19c0,2.92-2.34,4.82-4.82,4.82-2.81,0-4.71-2.12-4.71-4.64-.04-2.77,2.12-4.86,4.79-4.86,2.95,0,4.75,2.23,4.75,4.68Zm-7.6,.18c0,1.66,1.22,2.95,2.81,2.95s2.84-1.33,2.84-3.1c0-1.33-.79-3.02-2.84-3.02-1.87,0-2.81,1.62-2.81,3.17Z"/></g></svg>