<?xml version="1.0" encoding="UTF-8"?><svg id="a" xmlns="http://www.w3.org/2000/svg" viewBox="0 0 512 326.12"><defs><style>.b{stroke-width:16px;}.b,.c,.d,.e,.f,.g{fill:none;stroke:#000;stroke-miterlimit:10;}.d{stroke-dasharray:0 0 0 0 24.32 6.08 6.08 6.08;}.e{stroke-dasharray:0 0 6.08 6.08;}.f{stroke-dasharray:0 0 5.28 5.28;}.h{fill:#ccc;}.g{stroke-dasharray:0 0 0 0 21.11 5.28 5.28 5.28;}</style></defs><g><polygon class="h" points="221.41 168.5 1.5 168.5 1.5 1.5 510.5 1.5 510.5 168.5 457.58 168.5 495 205.92 376.92 324 221.41 168.5"/><path d="M509,3V167h-55.04l5.12,5.12,33.8,33.8-115.96,115.96L222.91,167.88l-.88-.88H3V3H509m3-3H0V170H220.79l156.13,156.12,120.2-120.2-35.92-35.92h50.8V0h0Z"/></g><g><line class="c" x1="43.33" y1="85" x2="55.33" y2="85"/><line class="e" x1="61.41" y1="85" x2="70.54" y2="85"/><line class="d" x1="73.58" y1="85" x2="453.63" y2="85"/><line class="c" x1="456.67" y1="85" x2="468.67" y2="85"/></g><g><line class="c" x1="407.4" y1="236.7" x2="398.91" y2="228.21"/><line class="f" x1="395.18" y1="224.48" x2="389.58" y2="218.88"/><line class="g" x1="387.72" y1="217.02" x2="311.21" y2="140.51"/><line class="c" x1="309.35" y1="138.65" x2="300.86" y2="130.16"/></g><g><line class="b" x1="53" y1="85" x2="24.03" y2="85"/><polygon points="27.29 109.3 27.29 60.7 3 85 27.29 109.3"/></g><g><line class="b" x1="509" y1="85" x2="480.03" y2="85"/><polygon points="483.29 109.3 483.29 60.7 459 85 483.29 109.3"/></g><g><line class="b" x1="434.98" y1="264.44" x2="414.5" y2="243.96"/><polygon points="399.62 263.44 433.98 229.08 399.63 229.08 399.62 263.44"/></g></svg>