<?xml version="1.0" encoding="UTF-8"?><svg id="a" xmlns="http://www.w3.org/2000/svg" viewBox="0 0 482.35 362.12"><defs><style>.b,.c,.d{fill:none;stroke:#000;stroke-miterlimit:10;}.c{stroke-dasharray:0 0 5.65 5.65;}.e{fill:#ccc;}.d{stroke-dasharray:0 0 0 0 22.61 5.65 5.65 5.65;}</style></defs><g><path class="e" d="M1.5,360.62c.19-68.45,13.68-134.82,40.08-197.31C67.09,102.97,103.52,48.75,149.88,2.12l178.94,178.94c-47.59,48.12-73.94,111.77-74.32,179.56H1.5Z"/><path d="M149.89,4.25l176.82,176.82c-46.86,47.92-72.94,110.93-73.69,178.05H3.01c.38-67.72,13.82-133.38,39.96-195.22C68.2,104.19,104.16,50.5,149.89,4.25m0-4.25C57.25,92.62,0,220.62,0,362.12H256c0-70.75,28.62-134.75,74.94-181.06L149.88,0h0Z"/></g><g><path class="b" d="M205.67,111.12c-2.7,2.78-5.37,5.77-7.98,8.95"/><path class="c" d="M194.16,124.49c-1.7,2.2-3.37,4.48-5.02,6.83"/><path class="d" d="M187.53,133.64c-32.18,47.06-55.77,121.42-59.12,183.65"/><path class="b" d="M128.27,320.12c-.18,4.06-.27,8.06-.27,12"/></g><line class="b" x1="482" y1="332.12" x2="391.49" y2="241.61"/><line class="b" x1="482" y1="332.12" x2="354" y2="332.12"/><path class="b" d="M416.7,266.82c-16.71,16.7-27.03,39.78-27.03,65.3"/><g><path d="M351.16,299.36v-6.37h-10.87v-2.09l10.44-14.94h3.42v14.54h3.28v2.48h-3.28v6.37h-2.99Zm0-8.85v-7.81c0-1.22,.04-2.45,.11-3.67h-.11c-.72,1.37-1.3,2.38-1.94,3.46l-5.72,7.96v.07h7.67Z"/><path d="M373.8,278.63h-8.93l-.9,6.01c.54-.07,1.04-.14,1.91-.14,1.8,0,3.6,.4,5.04,1.26,1.84,1.04,3.35,3.06,3.35,6.01,0,4.57-3.64,7.99-8.71,7.99-2.56,0-4.71-.72-5.83-1.44l.79-2.41c.97,.58,2.88,1.3,5,1.3,2.99,0,5.54-1.94,5.54-5.08-.04-3.02-2.05-5.18-6.73-5.18-1.33,0-2.38,.14-3.24,.25l1.51-11.23h11.19v2.66Z"/><path d="M387.27,279.38c0,2.92-2.34,4.82-4.82,4.82-2.81,0-4.71-2.12-4.71-4.64-.04-2.77,2.12-4.86,4.79-4.86,2.95,0,4.75,2.23,4.75,4.68Zm-7.6,.18c0,1.66,1.22,2.95,2.81,2.95s2.84-1.33,2.84-3.1c0-1.33-.79-3.02-2.84-3.02-1.87,0-2.81,1.62-2.81,3.17Z"/></g></svg>