<?xml version="1.0" encoding="UTF-8"?><svg id="a" xmlns="http://www.w3.org/2000/svg" viewBox="0 0 482.43 437.96"><defs><style>.b,.c,.d{fill:none;stroke:#000;stroke-miterlimit:10;}.c{stroke-dasharray:0 0 5.82 5.82;}.e{fill:#ccc;}.d{stroke-dasharray:0 0 0 0 23.28 5.82 5.82 5.82;}</style></defs><g><path class="e" d="M1.5,436.46c.26-88.86,23.62-176.22,67.6-252.73C111.75,109.51,172.87,46.73,245.93,2.08l126.63,219.31c-73.53,47.39-117.55,127.6-118.05,215.07H1.5Z"/><path d="M245.4,4.16l54.93,95.14,70.21,121.61c-72.83,47.49-116.54,127.12-117.53,214.05H3.01c.26-44.24,6.18-88.1,17.61-130.39,11.34-41.95,28.09-82.35,49.78-120.1C112.67,110.92,173.14,48.63,245.4,4.16m1.06-4.16C98.64,89.74,0,252.22,0,437.96H256c0-90.9,47.25-170.66,118.57-216.08l-71.64-124.08L246.46,0h0Z"/></g><g><path class="b" d="M128,407.96c.17-4.06,.36-8.05,.58-11.99"/><path class="c" d="M128.93,390.16c.19-2.94,.39-5.84,.61-8.71"/><path class="d" d="M129.77,378.55c9.75-121,47.69-179.61,124.31-242.88"/><path class="b" d="M256.32,133.82c3.05-2.5,6.17-5.01,9.34-7.53"/></g><line class="b" x1="482" y1="407.96" x2="354" y2="407.96"/><path class="b" d="M389.67,407.96c0-34.21,18.55-64.04,46.15-79.99"/><g><path d="M357.49,333.91c-.65-.04-1.48,0-2.38,.14-4.97,.83-7.6,4.46-8.13,8.32h.11c1.12-1.48,3.06-2.7,5.65-2.7,4.14,0,7.06,2.99,7.06,7.56,0,4.28-2.92,8.24-7.78,8.24s-8.28-3.89-8.28-9.97c0-4.61,1.66-8.24,3.96-10.55,1.94-1.91,4.54-3.1,7.49-3.46,.94-.14,1.73-.18,2.3-.18v2.59Zm-.9,13.5c0-3.35-1.91-5.36-4.82-5.36-1.91,0-3.67,1.19-4.54,2.88-.22,.36-.36,.83-.36,1.4,.07,3.85,1.84,6.7,5.15,6.7,2.74,0,4.57-2.27,4.57-5.62Z"/><path d="M378.15,343.13c0,7.96-2.95,12.35-8.13,12.35-4.57,0-7.67-4.28-7.74-12.02,0-7.85,3.38-12.17,8.13-12.17s7.74,4.39,7.74,11.84Zm-12.71,.36c0,6.08,1.87,9.54,4.75,9.54,3.24,0,4.79-3.78,4.79-9.75s-1.48-9.54-4.75-9.54c-2.77,0-4.79,3.38-4.79,9.75Z"/><path d="M390.03,335.1c0,2.92-2.34,4.82-4.82,4.82-2.81,0-4.71-2.12-4.71-4.64-.04-2.77,2.12-4.86,4.79-4.86,2.95,0,4.75,2.23,4.75,4.68Zm-7.6,.18c0,1.66,1.22,2.95,2.81,2.95s2.84-1.33,2.84-3.1c0-1.33-.79-3.02-2.84-3.02-1.87,0-2.81,1.62-2.81,3.17Z"/></g><line class="b" x1="482" y1="407.96" x2="418" y2="297.11"/></svg>