<?xml version="1.0" encoding="UTF-8"?><svg id="a" xmlns="http://www.w3.org/2000/svg" viewBox="0 0 512 512"><defs><style>.b,.c,.d{fill:none;stroke:#000;stroke-miterlimit:10;}.c{stroke-dasharray:0 0 6.16 6.16;}.d{stroke-dasharray:0 0 0 0 24.63 6.16 6.16 6.16;}.e{fill:#ccc;}</style></defs><g><path class="e" d="M1.5,510.5c.19-68.45,13.68-134.82,40.08-197.31,25.69-60.8,62.48-115.39,109.35-162.26,46.87-46.87,101.46-83.66,162.26-109.35C375.68,15.18,442.05,1.7,510.5,1.5V254.5c-140.79,.81-255.18,115.2-256,256H1.5Z"/><path d="M509,3.01V253.02c-140.44,1.6-254.38,115.55-255.98,255.98H3.01c.38-67.72,13.82-133.38,39.96-195.22,25.62-60.62,62.3-115.05,109.03-161.78,46.73-46.73,101.16-83.41,161.78-109.03C375.62,16.83,441.28,3.39,509,3.01m3-3.01C229,0,0,229,0,512H256c0-141.5,114.5-256,256-256V0h0Z"/></g><g><path class="b" d="M482,129.15c-4.03,.11-8.02,.26-11.99,.46"/><path class="c" d="M463.86,129.96c-3.09,.19-6.16,.41-9.21,.65"/><path class="d" d="M451.58,130.86c-190.87,16.44-309.13,137.84-322.75,336.07"/><path class="b" d="M128.62,470.02c-.25,3.96-.46,7.96-.62,11.98"/></g><line class="b" x1="482" y1="482" x2="482" y2="354"/><line class="b" x1="482" y1="482" x2="354" y2="482"/><path class="b" d="M389.67,482c0-51.04,41.3-92.33,92.33-92.33"/><g><path d="M368.93,400.21c.68,.07,1.48,0,2.56-.11,1.83-.25,3.56-1.01,4.89-2.27,1.55-1.4,2.66-3.46,3.1-6.23h-.11c-1.3,1.58-3.17,2.52-5.51,2.52-4.21,0-6.91-3.17-6.91-7.16,0-4.43,3.2-8.31,7.99-8.31s7.74,3.89,7.74,9.86c0,5.15-1.73,8.75-4.03,10.98-1.8,1.76-4.28,2.84-6.8,3.13-1.15,.18-2.16,.22-2.92,.18v-2.59Zm1.15-13.46c0,2.92,1.76,4.97,4.5,4.97,2.12,0,3.78-1.04,4.61-2.45,.18-.29,.29-.65,.29-1.15,0-4-1.48-7.05-4.79-7.05-2.7,0-4.61,2.38-4.61,5.69Z"/><path d="M401.11,390.5c0,7.96-2.95,12.35-8.13,12.35-4.57,0-7.67-4.28-7.74-12.02,0-7.85,3.38-12.17,8.13-12.17s7.74,4.39,7.74,11.84Zm-12.71,.36c0,6.08,1.87,9.54,4.75,9.54,3.24,0,4.79-3.78,4.79-9.75s-1.48-9.54-4.75-9.54c-2.77,0-4.79,3.38-4.79,9.75Z"/><path d="M412.99,382.47c0,2.92-2.34,4.82-4.82,4.82-2.81,0-4.71-2.12-4.71-4.64-.04-2.77,2.12-4.86,4.79-4.86,2.95,0,4.75,2.23,4.75,4.68Zm-7.6,.18c0,1.66,1.22,2.95,2.81,2.95s2.84-1.33,2.84-3.1c0-1.33-.79-3.02-2.84-3.02-1.87,0-2.81,1.62-2.81,3.17Z"/></g></svg>