<?xml version="1.0" encoding="UTF-8"?><svg id="a" xmlns="http://www.w3.org/2000/svg" viewBox="0 0 512 342"><defs><style>.b{stroke-width:16px;}.b,.c,.d,.e,.f,.g{fill:none;stroke:#000;stroke-miterlimit:10;}.d{stroke-dasharray:0 0 0 0 24.32 6.08 6.08 6.08;}.e{stroke-dasharray:0 0 6.08 6.08;}.f{stroke-dasharray:0 0 5.28 5.28;}.h{fill:#ccc;}.g{stroke-dasharray:0 0 0 0 21.11 5.28 5.28 5.28;}</style></defs><g><polygon class="h" points="172.5 340.5 172.5 168.5 1.5 168.5 1.5 1.5 510.5 1.5 510.5 168.5 339.5 168.5 339.5 340.5 172.5 340.5"/><path d="M509,3V167h-171v172H174V167H3V3H509m3-3H0V170H171v172h170V170h171V0h0Z"/></g><g><line class="c" x1="43.33" y1="85" x2="55.33" y2="85"/><line class="e" x1="61.41" y1="85" x2="70.54" y2="85"/><line class="d" x1="73.58" y1="85" x2="453.63" y2="85"/><line class="c" x1="456.67" y1="85" x2="468.67" y2="85"/></g><g><line class="c" x1="256.11" y1="300.44" x2="256.11" y2="288.44"/><line class="f" x1="256.11" y1="283.17" x2="256.11" y2="275.25"/><line class="g" x1="256.11" y1="272.61" x2="256.11" y2="164.42"/><line class="c" x1="256.11" y1="161.78" x2="256.11" y2="149.78"/></g><g><line class="b" x1="459" y1="85" x2="487.97" y2="85"/><polygon points="484.71 60.7 484.71 109.3 509 85 484.71 60.7"/></g><g><line class="b" x1="3" y1="85" x2="31.97" y2="85"/><polygon points="28.71 60.7 28.71 109.3 53 85 28.71 60.7"/></g><g><line class="b" x1="256" y1="289" x2="256" y2="317.97"/><polygon points="280.3 314.71 231.7 314.71 256 339 280.3 314.71"/></g></svg>