<?xml version="1.0" encoding="UTF-8"?><svg id="a" xmlns="http://www.w3.org/2000/svg" viewBox="0 0 511.94 256"><defs><style>.b{stroke-width:16px;}.b,.c,.d,.e{fill:none;stroke:#000;stroke-miterlimit:10;}.d{stroke-dasharray:0 0 0 0 24.32 6.08 6.08 6.08;}.e{stroke-dasharray:0 0 6.08 6.08;}.f{fill:#ccc;}</style></defs><g><polygon class="f" points="1.5 254.5 1.5 1.5 171.9 1.5 339.47 65.5 510.44 65.5 510.44 190.5 339.47 190.5 171.9 254.5 1.5 254.5"/><path d="M171.63,3l167.05,63.8,.52,.2h169.74v122h-169.74l-.52,.2-167.05,63.8H3V3H171.63m.55-3H0V256H172.18l167.57-64h172.19V64h-172.19L172.18,0h0Z"/></g><g><line class="c" x1="43.27" y1="128" x2="55.27" y2="128"/><line class="e" x1="61.35" y1="128" x2="70.48" y2="128"/><line class="d" x1="73.52" y1="128" x2="453.57" y2="128"/><line class="c" x1="456.61" y1="128" x2="468.61" y2="128"/></g><g><line class="b" x1="458.94" y1="128" x2="487.91" y2="128"/><polygon points="484.65 103.7 484.65 152.3 508.94 128 484.65 103.7"/></g><g><line class="b" x1="2.94" y1="128" x2="31.91" y2="128"/><polygon points="28.65 103.7 28.65 152.3 52.94 128 28.65 103.7"/></g></svg>