<?xml version="1.0" encoding="UTF-8"?><svg id="a" xmlns="http://www.w3.org/2000/svg" viewBox="0 0 511.94 256"><defs><style>.b{stroke-width:16px;}.b,.c,.d,.e{fill:none;stroke:#000;stroke-miterlimit:10;}.d{stroke-dasharray:0 0 0 0 24.32 6.08 6.08 6.08;}.e{stroke-dasharray:0 0 6.08 6.08;}.f{fill:#ccc;}</style></defs><g><polygon class="f" points="1.5 254.5 1.5 1.5 254.5 1.5 254.5 65.5 510.44 65.5 510.44 190.5 254.5 190.5 254.5 254.5 1.5 254.5"/><path d="M253,3V67h255.94v122H253v64H3V3H253m3-3H0V256H256v-64h255.94V64H256V0h0Z"/></g><g><line class="c" x1="43.27" y1="128" x2="55.27" y2="128"/><line class="e" x1="61.35" y1="128" x2="70.48" y2="128"/><line class="d" x1="73.52" y1="128" x2="453.57" y2="128"/><line class="c" x1="456.61" y1="128" x2="468.61" y2="128"/></g><g><line class="b" x1="458.94" y1="128" x2="487.91" y2="128"/><polygon points="484.65 103.7 484.65 152.3 508.94 128 484.65 103.7"/></g><g><line class="b" x1="2.94" y1="128" x2="31.91" y2="128"/><polygon points="28.65 103.7 28.65 152.3 52.94 128 28.65 103.7"/></g></svg>