<?xml version="1.0" encoding="UTF-8"?><svg id="a" xmlns="http://www.w3.org/2000/svg" viewBox="0 0 512 512"><defs><style>.b{fill:#fff;}.c{fill:#1e90ff;}</style></defs><rect class="c" width="512" height="512" rx="31.05" ry="31.05"/><path class="b" d="M338.43,215.38c-43.82,43.81-70.89,104.35-70.89,171.28H25.36c0-133.86,54.16-254.95,141.79-342.57l171.28,171.28Z"/><g><path class="b" d="M406.35,370.48c0,4.17-.78,8.29-2.34,12.38-1.56,4.09-3.98,7.75-7.27,10.98-3.28,3.23-7.47,5.85-12.58,7.85-5.11,2.01-11.2,3.01-18.28,3.01h-12.66v36.64h-13.91v-102.11h28.75c5.05,0,9.89,.56,14.53,1.68,4.64,1.12,8.71,2.93,12.23,5.43s6.32,5.73,8.4,9.69c2.08,3.96,3.12,8.78,3.12,14.45Zm-14.45,.62c0-6.56-2.15-11.59-6.45-15.08s-10.3-5.23-18.01-5.23h-14.22v42.03h12.97c8.23,0,14.57-1.8,19.02-5.39s6.68-9.04,6.68-16.33Z"/><path class="b" d="M456.87,441.34l-.21-7.03c-2.85,2.81-5.74,4.84-8.67,6.09s-6.02,1.88-9.24,1.88c-2.99,0-5.54-.38-7.66-1.15s-3.86-1.81-5.23-3.15c-1.37-1.34-2.38-2.91-3.02-4.71-.64-1.8-.96-3.77-.96-5.89,0-5.24,1.95-9.35,5.86-12.32s9.68-4.45,17.32-4.45h10.83v-4.58c0-3.09-.99-5.56-2.97-7.42-1.98-1.86-5-2.79-9.06-2.79-2.95,0-5.86,.33-8.72,.99-2.86,.66-5.83,1.6-8.88,2.81v-8.18c1.15-.42,2.42-.82,3.83-1.22,1.41-.4,2.89-.76,4.45-1.07s3.2-.56,4.9-.76c1.7-.19,3.42-.29,5.16-.29,3.16,0,6.01,.35,8.54,1.04,2.53,.7,4.68,1.76,6.43,3.18,1.75,1.42,3.1,3.21,4.04,5.36,.94,2.15,1.41,4.69,1.41,7.6v36.04h-8.12Zm-.99-23.8h-11.51c-2.26,0-4.2,.23-5.83,.68-1.63,.45-2.97,1.09-4.01,1.93s-1.82,1.83-2.32,2.99c-.5,1.16-.76,2.47-.76,3.93,0,1.01,.16,1.97,.47,2.89,.31,.92,.82,1.74,1.51,2.45,.7,.71,1.6,1.28,2.71,1.69s2.47,.62,4.06,.62c2.08,0,4.47-.63,7.16-1.9,2.69-1.27,5.53-3.27,8.52-6.02v-9.27Z"/></g></svg>