<?xml version="1.0" encoding="UTF-8"?><svg id="a" xmlns="http://www.w3.org/2000/svg" viewBox="0 0 192 192"><defs><style>.b{fill:#fff;}.c{fill:#1e90ff;}</style></defs><rect class="c" width="192" height="192" rx="11.64" ry="11.64"/><path class="b" d="M126.91,80.77c-16.43,16.43-26.59,39.13-26.59,64.23H9.51c0-50.2,20.31-95.61,53.17-128.46L126.91,80.77Z"/><g><path class="b" d="M152.38,138.93c0,1.56-.29,3.11-.88,4.64-.59,1.53-1.49,2.91-2.72,4.12s-2.8,2.19-4.72,2.94c-1.92,.75-4.2,1.13-6.86,1.13h-4.75v13.74h-5.21v-38.29h10.78c1.89,0,3.71,.21,5.45,.63,1.74,.42,3.27,1.1,4.58,2.04s2.37,2.15,3.15,3.63c.78,1.48,1.17,3.29,1.17,5.42Zm-5.42,.23c0-2.46-.81-4.35-2.42-5.65s-3.86-1.96-6.75-1.96h-5.33v15.76h4.86c3.09,0,5.46-.67,7.13-2.02s2.5-3.39,2.5-6.12Z"/><path class="b" d="M171.33,165.5l-.08-2.64c-1.07,1.05-2.15,1.82-3.25,2.29s-2.26,.7-3.47,.7c-1.12,0-2.08-.14-2.87-.43s-1.45-.68-1.96-1.18c-.51-.5-.89-1.09-1.13-1.77-.24-.68-.36-1.41-.36-2.21,0-1.97,.73-3.51,2.2-4.62s3.63-1.67,6.49-1.67h4.06v-1.72c0-1.16-.37-2.09-1.11-2.78-.74-.7-1.88-1.04-3.4-1.04-1.11,0-2.2,.12-3.27,.37-1.07,.25-2.18,.6-3.33,1.05v-3.07c.43-.16,.91-.31,1.44-.46,.53-.15,1.08-.28,1.67-.4s1.2-.21,1.84-.28c.64-.07,1.28-.11,1.93-.11,1.18,0,2.25,.13,3.2,.39,.95,.26,1.75,.66,2.41,1.19,.66,.53,1.16,1.21,1.51,2.01,.35,.81,.53,1.76,.53,2.85v13.52h-3.05Zm-.37-8.93h-4.32c-.85,0-1.58,.08-2.19,.25-.61,.17-1.11,.41-1.5,.72s-.68,.69-.87,1.12c-.19,.44-.28,.93-.28,1.47,0,.38,.06,.74,.18,1.08,.12,.35,.31,.65,.57,.92,.26,.27,.6,.48,1.02,.63s.92,.23,1.52,.23c.78,0,1.68-.24,2.69-.71,1.01-.47,2.07-1.23,3.19-2.26v-3.48Z"/></g></svg>